<svg width="33" height="33" viewBox="0 0 33 33" version="1.1" xmlns="http://www.w3.org/2000/svg" xmlns:xlink="http://www.w3.org/1999/xlink">
<g id="Canvas" fill="none">
<path id="Union" fill-rule="evenodd" clip-rule="evenodd" d="M 24.5481 31.4856L 30.017 28.3665C 31.2429 27.6672 32 26.3621 32 24.948L 32 18.6064C 32 17.2119 31.2635 15.9219 30.0644 15.2156L 25.3936 12.4644L 25.3936 7.07153C 25.3936 5.66113 24.6402 4.35864 23.4191 3.6582L 17.9482 0.519287C 16.7412 -0.173096 15.2588 -0.173096 14.0518 0.519287L 8.58087 3.65796C 7.3598 4.35864 6.60645 5.66113 6.60645 7.07153L 6.60645 12.4644L 1.93561 15.2156C 0.73645 15.9219 0 17.2119 0 18.6064L 0 24.948C 0 26.3621 0.757141 27.6672 1.98297 28.3665L 7.4519 31.4856C 8.65668 32.1729 10.1337 32.1714 11.3372 31.4822L 16 28.8115L 20.6628 31.4822C 21.8663 32.1714 23.3433 32.1729 24.5481 31.4856ZM 8.08386 13.8748C 8.38361 13.6982 8.56775 13.3755 8.56775 13.0271L 8.56775 7.07153C 8.56775 6.36621 8.9444 5.71509 9.55493 5.36475L 15.0259 2.22607C 15.6294 1.87988 16.3706 1.87988 16.9741 2.22607L 22.4451 5.36475C 23.0555 5.71509 23.4323 6.36621 23.4323 7.07153L 23.4323 13.0271C 23.4323 13.3755 23.6163 13.6982 23.9161 13.8748L 29.0709 16.9109C 29.6705 17.2642 30.0387 17.9092 30.0387 18.6064L 30.0387 24.948C 30.0387 25.655 29.6602 26.3076 29.0472 26.6572L 23.5782 29.7764C 22.9759 30.1201 22.2374 30.1194 21.6356 29.7747L 16.4864 26.8257C 16.185 26.6531 15.815 26.6531 15.5135 26.8257L 10.3644 29.7747C 9.76263 30.1194 9.02411 30.1201 8.42175 29.7764L 2.95276 26.6572C 2.33984 26.3076 1.9613 25.655 1.9613 24.948L 1.9613 18.6064C 1.9613 17.9092 2.32953 17.2642 2.92908 16.9109L 8.08386 13.8748ZM 16.9942 4.14111C 16.3784 3.78833 15.6216 3.78833 15.0058 4.14111L 11.2252 6.30713C 10.6031 6.66357 10.2194 7.32544 10.2194 8.04248L 10.2194 12.4304C 10.2194 13.1475 10.6031 13.8096 11.2252 14.166L 15.0058 16.3318C 15.6216 16.6848 16.3784 16.6848 16.9942 16.3318L 20.7748 14.166C 21.3969 13.8096 21.7806 13.1475 21.7806 12.4304L 21.7806 8.04248C 21.7806 7.32544 21.3969 6.66357 20.7748 6.30713L 16.9942 4.14111ZM 10.3878 15.6497C 9.77191 15.2969 9.0152 15.2969 8.39935 15.6497L 4.61871 17.8157C 3.99664 18.1721 3.61292 18.834 3.61292 19.551L 3.61292 23.9373C 3.61292 24.6541 3.9964 25.3159 4.61823 25.6724L 8.39886 27.8398C 9.01495 28.1929 9.77216 28.1929 10.3882 27.8398L 14.1689 25.6724C 14.7907 25.3159 15.1742 24.6541 15.1742 23.9373L 15.1742 19.551C 15.1742 18.834 14.7905 18.1721 14.1684 17.8157L 10.3878 15.6497ZM 21.6122 15.6497C 22.2281 15.2969 22.9848 15.2969 23.6006 15.6497L 27.3813 17.8157C 28.0034 18.1721 28.3871 18.834 28.3871 19.551L 28.3871 23.9373C 28.3871 24.6541 28.0036 25.3159 27.3818 25.6724L 23.6011 27.8398C 22.985 28.1929 22.2278 28.1929 21.6118 27.8398L 17.8311 25.6724C 17.2093 25.3159 16.8258 24.6541 16.8258 23.9373L 16.8258 19.551C 16.8258 18.834 17.2095 18.1721 17.8316 17.8157L 21.6122 15.6497Z" transform="translate(0.684204 0.73584)" fill="#343A3C"/>
</g>
</svg>
